<svg width="126" height="212" viewBox="0 0 126 212" fill="none" xmlns="http://www.w3.org/2000/svg">
<path d="M121.619 113.925L96.117 83.0333H29.883L4.38115 113.925L0.868896 108.675L27.867 75.9667H98.133L125.131 108.675L121.619 113.925Z" fill="black"/>
<path d="M118.125 169.6H7.875C3.53194 169.6 0 164.846 0 159V107.767H42V111.3C42 120.068 47.2986 127.2 53.8125 127.2H72.1875C78.7014 127.2 84 120.068 84 111.3V107.767H126V159C126 164.846 122.468 169.6 118.125 169.6ZM5.25 114.833V159C5.25 160.949 6.42731 162.533 7.875 162.533H118.125C119.573 162.533 120.75 160.949 120.75 159V114.833H89.0492C87.7826 125.827 80.703 134.267 72.1875 134.267H53.8125C45.297 134.267 38.2174 125.827 36.9508 114.833H5.25Z" fill="black"/>
<path d="M46.8396 47.5728L37.652 28.1392L33.2226 31.9333L42.4102 51.3669L46.8396 47.5728Z" fill="black"/>
<path d="M94.0904 31.927L89.661 28.1336L80.4751 47.5672L84.9045 51.3606L94.0904 31.927Z" fill="black"/>
<path d="M65.625 24.7333H60.375V47.7H65.625V24.7333Z" fill="black"/>
</svg>
