<svg width="120" height="120" viewBox="0 0 120 120" fill="none" xmlns="http://www.w3.org/2000/svg">
<path d="M80 40V25C80 20.286 80 17.9289 78.5355 16.4645C77.0711 15 74.714 15 70 15H50C45.286 15 42.9289 15 41.4645 16.4645C40 17.9289 40 20.286 40 25V40" stroke="#222222" stroke-width="2" stroke-linecap="round"/>
<path fill-rule="evenodd" clip-rule="evenodd" d="M15.8787 35.8787C15 36.7574 15 38.1716 15 41V102C15 105.771 15 107.657 16.1716 108.828C17.3431 110 19.2288 110 23 110H97C100.771 110 102.657 110 103.828 108.828C105 107.657 105 105.771 105 102V41C105 38.1716 105 36.7574 104.121 35.8787C103.243 35 101.828 35 99 35H21C18.1716 35 16.7574 35 15.8787 35.8787ZM59 80V82.9621C52.2876 82.4515 47 76.8432 47 70C47 62.8203 52.8203 57 60 57C67.1797 57 73 62.8203 73 70C73 76.8432 67.7124 82.4515 61 82.9621V80H59ZM45 70C45 77.9482 51.182 84.4526 59 84.9672V95H61V84.9672C68.818 84.4526 75 77.9482 75 70C75 61.7157 68.2843 55 60 55C51.7157 55 45 61.7157 45 70Z" fill="#222222"/>
</svg>
