<svg width="16" height="17" viewBox="0 0 16 17" fill="none" xmlns="http://www.w3.org/2000/svg">
<path fill-rule="evenodd" clip-rule="evenodd" d="M12.7117 16.3683C12.8279 16.4373 12.9568 16.4718 13.0847 16.4718H13.0945C13.4958 16.4718 13.8191 16.1456 13.8191 15.7471C13.8191 15.6248 13.7908 15.5119 13.738 15.4115L11.9089 10.2695L15.698 7.25459C15.9402 7.06322 16.031 6.74008 15.9304 6.44832C15.8298 6.15656 15.5544 5.96205 15.2468 5.96205H10.5349L8.67749 0.998901C8.57007 0.716553 8.30054 0.52832 7.99975 0.52832C7.698 0.52832 7.42847 0.716553 7.32202 0.998901L5.4646 5.96205H0.755614C0.447996 5.96205 0.175536 6.15656 0.0720199 6.44832C-0.0314957 6.74008 0.0622543 7.06322 0.300536 7.25459L4.09643 10.2726L2.35522 15.3832C2.25854 15.6718 2.34936 15.9887 2.58472 16.1801C2.82007 16.3715 3.14917 16.3966 3.40991 16.2428L7.99682 13.5385L12.7117 16.3683ZM8.37378 12.0734C8.25757 12.0044 8.12866 11.9699 7.99975 11.9699C7.87182 11.9699 7.74585 12.0044 7.63257 12.0703L4.36108 13.9997L5.63745 10.257C5.73511 9.96832 5.64038 9.64833 5.4021 9.45695L2.82983 7.41147H5.96753C6.26831 7.41147 6.53784 7.22322 6.64429 6.94087L7.99975 3.32048L9.35522 6.94087C9.45874 7.22322 9.73218 7.41147 10.033 7.41147H13.1707L10.5974 9.45695C10.3562 9.64833 10.2624 9.97459 10.366 10.2664L11.7244 14.0844L8.37378 12.0734Z" fill="#004AD7"/>
</svg>
