<svg width="30" height="30" viewBox="0 0 30 30" fill="none" xmlns="http://www.w3.org/2000/svg">
<path fill-rule="evenodd" clip-rule="evenodd" d="M17.9533 4.40423C17.0534 3.98369 16.0515 3.75 14.9999 3.75C11.4418 3.75 8.45264 6.4254 8.05971 9.96177L7.74496 12.7945C7.69299 13.2623 7.667 13.4962 7.62785 13.7258C7.48713 14.5511 7.21772 15.3493 6.82945 16.0911C6.72144 16.2975 6.60037 16.4992 6.35823 16.9028L5.56731 18.221C4.76155 19.5639 4.35867 20.2354 4.6459 20.7427C4.93313 21.25 5.71618 21.25 7.28229 21.25H22.7175C24.2836 21.25 25.0667 21.25 25.3539 20.7427C25.6411 20.2354 25.2383 19.5639 24.4325 18.221L23.6416 16.9028C23.3995 16.4992 23.2784 16.2975 23.1704 16.0911C22.7821 15.3493 22.5127 14.5511 22.372 13.7258C22.3389 13.5317 22.3152 13.3345 22.2772 12.9956C19.3429 12.8787 16.9999 10.463 16.9999 7.5C16.9999 6.35196 17.3517 5.28607 17.9533 4.40423ZM20.3425 6.23604C20.1248 6.60689 19.9999 7.03887 19.9999 7.5C19.9999 8.68724 20.8275 9.68118 21.9372 9.93643C21.7755 8.52668 21.2009 7.25477 20.3425 6.23604Z" fill="#6B6C7E"/>
<path d="M11.25 21.25C11.25 21.7425 11.347 22.2301 11.5355 22.6851C11.7239 23.14 12.0001 23.5534 12.3483 23.9016C12.6966 24.2499 13.11 24.5261 13.5649 24.7145C14.0199 24.903 14.5075 25 15 25C15.4925 25 15.9801 24.903 16.4351 24.7145C16.89 24.5261 17.3034 24.2499 17.6517 23.9016C17.9999 23.5534 18.2761 23.14 18.4645 22.6851C18.653 22.2301 18.75 21.7425 18.75 21.25L15 21.25H11.25Z" fill="#6B6C7E"/>
<path d="M22.5 10.5C24.1569 10.5 25.5 9.15685 25.5 7.5C25.5 5.84315 24.1569 4.5 22.5 4.5C20.8431 4.5 19.5 5.84315 19.5 7.5C19.5 9.15685 20.8431 10.5 22.5 10.5Z" fill="#6B6C7E" stroke="#6B6C7E"/>
</svg>
