<svg width="32" height="32" viewBox="0 0 32 32" fill="none" xmlns="http://www.w3.org/2000/svg">
<path fill-rule="evenodd" clip-rule="evenodd" d="M6.50495 7.8382C5.33337 9.00977 5.33337 10.8954 5.33337 14.6666L5.33337 17.3333L5.33337 22.6666L5.33337 25.5857C5.33337 26.4767 6.41051 26.9228 7.04048 26.2929L10.5203 22.8131C10.5925 22.7408 10.6286 22.7047 10.6746 22.6857C10.7205 22.6666 10.7716 22.6666 10.8738 22.6666L18.6667 22.6666C22.4379 22.6666 24.3236 22.6666 25.4951 21.4951C26.6667 20.3235 26.6667 18.4379 26.6667 14.6666C26.6667 10.8954 26.6667 9.00978 25.4951 7.8382C24.3236 6.66663 22.4379 6.66663 18.6667 6.66663L13.3334 6.66663C9.56214 6.66663 7.67652 6.66663 6.50495 7.8382Z" fill="#7E869E" fill-opacity="0.25"/>
<path d="M11.3334 12.6666L20.6667 12.6666" stroke="#222222" stroke-linecap="round" stroke-linejoin="round"/>
<path d="M11.3334 16.6666L18 16.6666" stroke="#222222" stroke-linecap="round" stroke-linejoin="round"/>
</svg>
