<svg width="21" height="18" viewBox="0 0 21 18" fill="none" xmlns="http://www.w3.org/2000/svg">
<path fill-rule="evenodd" clip-rule="evenodd" d="M8.43393 5.82359L5.77224 3.31429C5.64798 3.19445 5.49109 3.13315 5.33339 3.13306C5.22548 3.133 5.11718 3.16159 5.01869 3.21972C4.9748 3.24555 4.93309 3.2771 4.89453 3.31429L2.23285 5.82359C1.95328 6.08715 1.92088 6.5501 2.16048 6.85762C2.40008 7.16514 2.82095 7.20078 3.10051 6.93722L4.66668 5.46072V11.1401C4.66668 11.5451 4.96515 11.8735 5.33334 11.8735C5.70153 11.8735 6.00001 11.5451 6.00001 11.1401L6.00001 5.46064L7.56626 6.93722C7.84582 7.20078 8.26669 7.16514 8.50629 6.85762C8.74589 6.5501 8.71349 6.08715 8.43393 5.82359ZM1.33333 10.4664C1.33333 10.0614 1.63181 9.73306 2 9.73306H3C3.36819 9.73306 3.66667 9.40473 3.66667 8.99972C3.66667 8.59471 3.36819 8.26639 3 8.26639H2C0.895431 8.26639 0 9.25136 0 10.4664V12.6664C0 13.8814 0.895431 14.8664 2 14.8664H8.66667C9.77124 14.8664 10.6667 13.8814 10.6667 12.6664V10.4664C10.6667 9.25136 9.77124 8.26639 8.66667 8.26639H7.66667C7.29848 8.26639 7 8.59471 7 8.99972C7 9.40473 7.29848 9.73306 7.66667 9.73306H8.66667C9.03486 9.73306 9.33333 10.0614 9.33333 10.4664V12.6664C9.33333 13.0714 9.03486 13.3997 8.66667 13.3997H2C1.63181 13.3997 1.33333 13.0714 1.33333 12.6664V10.4664Z" fill="#0F3659"/>
</svg>
