<svg width="16" height="16" viewBox="0 0 16 16" fill="none" xmlns="http://www.w3.org/2000/svg">
<path fill-rule="evenodd" clip-rule="evenodd" d="M1.86927 3.33337C1.33337 4.26158 1.33337 5.50773 1.33337 8.00004C1.33337 10.4924 1.33337 11.7385 1.86927 12.6667C2.22035 13.2748 2.7253 13.7797 3.33337 14.1308C4.26158 14.6667 5.50773 14.6667 8.00004 14.6667C10.4924 14.6667 11.7385 14.6667 12.6667 14.1308C13.2748 13.7797 13.7797 13.2748 14.1308 12.6667C14.6667 11.7385 14.6667 10.4924 14.6667 8.00004C14.6667 5.87255 14.6667 4.6531 14.3334 3.76433V11.3334C13.6931 11.3334 13.079 11.079 12.6263 10.6263L12.1252 10.1252L12.125 10.125C12.084 10.084 12.0635 10.0635 12.0458 10.0466C11.2734 9.31131 10.06 9.31131 9.28766 10.0466C9.2699 10.0635 9.24941 10.084 9.2085 10.1249L9.20843 10.125L9.20826 10.1252L9.13283 10.2006L9.13281 10.2006C9.05444 10.279 9.01525 10.3182 8.98375 10.3449C8.49664 10.7575 7.75283 10.6143 7.45382 10.0502C7.43448 10.0137 7.41264 9.96278 7.36898 9.8609L7.33337 9.77782L7.33337 9.77781C7.18284 9.42657 7.10757 9.25095 7.03344 9.12925C6.41938 8.12125 5.07049 7.86148 4.12599 8.56933C4.01196 8.65479 3.87686 8.78989 3.60665 9.0601L3.60664 9.06011L3.60664 9.06011L2.33337 10.3334V2.68762C2.15831 2.88612 2.00268 3.1023 1.86927 3.33337Z" fill="#222222"/>
<path d="M2.33337 8.00004C2.33337 6.73548 2.33433 5.85392 2.39628 5.17043C2.45698 4.50069 2.56987 4.11991 2.7353 3.83337C2.9986 3.37732 3.37732 2.9986 3.83337 2.7353C4.11991 2.56987 4.50069 2.45698 5.17043 2.39628C5.85392 2.33433 6.73548 2.33337 8.00004 2.33337C9.2646 2.33337 10.1462 2.33433 10.8297 2.39628C11.4994 2.45698 11.8802 2.56987 12.1667 2.7353C12.6228 2.9986 13.0015 3.37732 13.2648 3.83337C13.4302 4.11991 13.5431 4.50069 13.6038 5.17043C13.6657 5.85392 13.6667 6.73548 13.6667 8.00004C13.6667 9.2646 13.6657 10.1462 13.6038 10.8297C13.5431 11.4994 13.4302 11.8802 13.2648 12.1667C13.0015 12.6228 12.6228 13.0015 12.1667 13.2648C11.8802 13.4302 11.4994 13.5431 10.8297 13.6038C10.1462 13.6657 9.2646 13.6667 8.00004 13.6667C6.73548 13.6667 5.85392 13.6657 5.17043 13.6038C4.50069 13.5431 4.11991 13.4302 3.83337 13.2648C3.37732 13.0015 2.9986 12.6228 2.7353 12.1667C2.56987 11.8802 2.45698 11.4994 2.39628 10.8297C2.33433 10.1462 2.33337 9.2646 2.33337 8.00004Z" stroke="#FFB200" stroke-width="2"/>
<ellipse cx="9.99996" cy="5.99996" rx="1.33333" ry="1.33333" fill="#222222"/>
</svg>
