<svg width="16" height="15" viewBox="0 0 16 15" fill="none" xmlns="http://www.w3.org/2000/svg">
<path d="M4.99375 12.0125H15C16.3344 12.0125 16.3344 14.0125 15 14.0125H4.99375C3.66875 14.0125 3.66875 12.0125 4.99375 12.0125ZM4.99375 8.0125H15C16.3344 8.0125 16.3344 6.0125 15 6.0125H4.99375C3.66875 6.0125 3.66875 8.0125 4.99375 8.0125ZM4.99375 2H15C16.3344 2 16.3344 0 15 0H4.99375C3.66875 0 3.66875 2 4.99375 2ZM0 1.00312C0 2.33437 2 2.33437 2 1.00312C2 -0.33125 0 -0.33125 0 1.00312ZM0 7.0125C0 8.34375 2 8.34375 2 7.0125C2 5.67812 0 5.67812 0 7.0125ZM0 13.0125C0 14.3437 2 14.3437 2 13.0125C2 11.6781 0 11.6781 0 13.0125Z" fill="#6B6C7E"/>
</svg>
