<svg width="8" height="12" viewBox="0 0 8 12" fill="none" xmlns="http://www.w3.org/2000/svg">
<path d="M7.00242 2.52943L4.76546 0.296296C4.57488 0.106043 4.31869 0 4.05 0C3.78132 0 3.52513 0.106043 3.33455 0.296296L1.09759 2.52943C0.700808 2.92554 0.700808 3.56491 1.09759 3.95789C1.29442 4.15439 1.55373 4.25419 1.81304 4.25419C2.07235 4.25419 2.33167 4.15439 2.52849 3.95789L3.05024 3.43704V11.0019C3.05024 11.554 3.49701 12 4.05 12C4.603 12 5.04976 11.554 5.04976 11.0019V3.43704L5.57151 3.95789C5.96829 4.354 6.60876 4.354 7.00242 3.95789C7.3992 3.56179 7.3992 2.92242 7.00242 2.52943Z" fill="#6B6C7E"/>
</svg>
