<svg width="25" height="24" viewBox="0 0 25 24" fill="none" xmlns="http://www.w3.org/2000/svg">
<path d="M3.5 16L5.5 16C7.38562 16 8.32843 16 8.91421 15.4142C9.5 14.8284 9.5 13.8856 9.5 12L9.5 11C9.5 9.11438 9.5 8.17157 8.91421 7.58579C8.32843 7 7.38562 7 5.5 7L3.5 7" stroke="#004AD7" stroke-width="2"/>
<path d="M16.5 7L16.5 12" stroke="#004AD7" stroke-width="2" stroke-linecap="round"/>
<path d="M15.5 3C18.3284 3 19.7426 3 20.6213 3.87868C21.5 4.75736 21.5 6.17157 21.5 9L21.5 16.1716C21.5 16.5803 21.5 16.7847 21.4239 16.9685C21.3478 17.1522 21.2032 17.2968 20.9142 17.5858L18.0858 20.4142C17.7968 20.7032 17.6522 20.8478 17.4685 20.9239C17.2847 21 17.0803 21 16.6716 21L9.5 21C6.67157 21 5.25736 21 4.37868 20.1213C3.5 19.2426 3.5 17.8284 3.5 15L3.5 9C3.5 6.17157 3.5 4.75736 4.37868 3.87868C5.25736 3 6.67157 3 9.5 3L15.5 3Z" stroke="#004AD7" stroke-width="2"/>
</svg>
