<svg width="16" height="17" viewBox="0 0 16 17" fill="none" xmlns="http://www.w3.org/2000/svg">
<ellipse cx="4" cy="4" rx="4" ry="4" transform="matrix(4.37114e-08 -1 -1 -4.37114e-08 13.3333 12.5)" fill="#7E869E" fill-opacity="0.25"/>
<path d="M5.03325 8.5C5.03325 6.12518 6.95843 4.2 9.33325 4.2C11.7081 4.2 13.6333 6.12518 13.6333 8.5C13.6333 10.8748 11.7081 12.8 9.33325 12.8C6.95843 12.8 5.03325 10.8748 5.03325 8.5Z" stroke="#7E869E" stroke-opacity="0.25" stroke-width="0.6"/>
<path d="M5.33325 13.1189C6.14402 13.587 7.06372 13.8334 7.99992 13.8334C8.93611 13.8334 9.85582 13.587 10.6666 13.1189C11.4774 12.6508 12.1506 11.9775 12.6187 11.1667C13.0868 10.356 13.3333 9.43628 13.3333 8.50008C13.3333 7.56389 13.0868 6.64418 12.6187 5.83341C12.1506 5.02265 11.4774 4.34938 10.6666 3.88128C9.85582 3.41318 8.93611 3.16675 7.99992 3.16675C7.06372 3.16675 6.14402 3.41318 5.33325 3.88128" stroke="#CA3636" stroke-width="1.2"/>
<path d="M1.33325 8.50008L0.864731 8.12526L0.564877 8.50008L0.864731 8.8749L1.33325 8.50008ZM7.33325 9.10008C7.66462 9.10008 7.93325 8.83145 7.93325 8.50008C7.93325 8.16871 7.66462 7.90008 7.33325 7.90008V9.10008ZM3.5314 4.79193L0.864731 8.12526L1.80177 8.8749L4.46844 5.54157L3.5314 4.79193ZM0.864731 8.8749L3.5314 12.2082L4.46844 11.4586L1.80177 8.12526L0.864731 8.8749ZM1.33325 9.10008H7.33325V7.90008H1.33325V9.10008Z" fill="#CA3636"/>
</svg>
