<svg width="20" height="20" viewBox="0 0 18 19" fill="none" xmlns="http://www.w3.org/2000/svg">
<path fill-rule="evenodd" clip-rule="evenodd" d="M2 0.5C0.895432 0.5 0 1.39545 0 2.5V16.5C0 17.6046 0.895432 18.5 2 18.5H16C17.1046 18.5 18 17.6046 18 16.5V2.5C18 1.39545 17.1046 0.5 16 0.5H2ZM5 10.5C5 9.94769 4.55228 9.5 4 9.5C3.44772 9.5 3 9.94769 3 10.5V14.5C3 15.0523 3.44772 15.5 4 15.5C4.55228 15.5 5 15.0523 5 14.5V10.5ZM9 6.5C9.55228 6.5 10 6.94769 10 7.5V14.5C10 15.0523 9.55228 15.5 9 15.5C8.44772 15.5 8 15.0523 8 14.5V7.5C8 6.94769 8.44772 6.5 9 6.5ZM15 4.5C15 3.94769 14.5523 3.5 14 3.5C13.4477 3.5 13 3.94769 13 4.5V14.5C13 15.0523 13.4477 15.5 14 15.5C14.5523 15.5 15 15.0523 15 14.5V4.5Z" fill="white"/>
</svg>
